<svg xmlns="http://www.w3.org/2000/svg" viewBox="0 0 49.72 49.73"><defs><style>.cls-1{fill:#fff;}</style></defs><g id="Layer_2" data-name="Layer 2"><g id="Body"><g id="Gallery"><path class="cls-1" d="M24.87,0A24.87,24.87,0,1,0,49.72,24.87,24.89,24.89,0,0,0,24.87,0Zm0,48.84a24,24,0,1,1,24-24A24,24,0,0,1,24.87,48.84Z"/><path class="cls-1" d="M34.66,24.5,19.78,14.94a.35.35,0,0,0-.22-.08.38.38,0,0,0-.22.07.46.46,0,0,0-.23.38V34.42a.46.46,0,0,0,.24.39.51.51,0,0,0,.21.06.46.46,0,0,0,.24-.08l14.86-9.56a.41.41,0,0,0,.19-.36A.42.42,0,0,0,34.66,24.5ZM20,33.61V16.12l13.6,8.75Z"/><polygon class="cls-1" points="33.59 24.87 19.99 33.61 19.99 16.12 33.59 24.87"/></g></g></g></svg>