<svg xmlns="http://www.w3.org/2000/svg" viewBox="0 0 94.72 94.72"><defs><style>.cls-1{fill:#fff;}</style></defs><g id="Layer_2" data-name="Layer 2"><g id="Body"><g id="Infor"><path class="cls-1" d="M26.26,62.84l5.52,2.76v6.17a1.14,1.14,0,0,0,1.14,1.14H45.07a1.15,1.15,0,0,0,1.15-1.14v-15A6.79,6.79,0,0,0,40.1,50s-4.85-.76-7.09-3l-2.57-2.57a4.56,4.56,0,0,0-3.24-1.35V34A4.59,4.59,0,1,0,18,34V49.52a14.87,14.87,0,0,0,8.23,13.32ZM20.32,34a2.29,2.29,0,1,1,4.58,0v9.78A4.58,4.58,0,0,0,24,51l5.86,5.86a1.15,1.15,0,1,0,1.62-1.62l-5.86-5.86a2.27,2.27,0,0,1-.68-1.62,2.32,2.32,0,0,1,1.53-2.17h0a2.3,2.3,0,0,1,2.39.55l2.57,2.57c2.66,2.65,8.46,3.65,8.47,3.66a4.49,4.49,0,0,1,4.06,4.49V70.62H34.07V64.89a1.13,1.13,0,0,0-.63-1l-6.15-3.08a12.54,12.54,0,0,1-7-11.27Z"/><path class="cls-1" d="M46.22,44.27a1.15,1.15,0,0,0,2.29,0V40.83h4.38A11.67,11.67,0,0,0,64.55,29.18V23.64a1.13,1.13,0,0,0-.71-1.05,1.15,1.15,0,0,0-1.25.24,6.6,6.6,0,0,1-4.72,2,11.64,11.64,0,0,0-9.36,4.72V19.06a1.15,1.15,0,0,0-2.29,0v5.87a11.67,11.67,0,0,0-9.37-4.72,6.64,6.64,0,0,1-4.72-2A1.16,1.16,0,0,0,30.88,18a1.14,1.14,0,0,0-.7,1.06v5.53A11.66,11.66,0,0,0,41.83,36.25h4.39ZM57.87,27.08a8.9,8.9,0,0,0,4.39-1.14v3.24a9.37,9.37,0,0,1-9.37,9.36H50.8l6.42-4.81a1.15,1.15,0,0,0-1.38-1.84l-7.33,5.5v-1A9.37,9.37,0,0,1,57.87,27.08Zm-25.4-2.49V21.36a8.94,8.94,0,0,0,4.38,1.14,9.37,9.37,0,0,1,9.37,9.36v1l-7.34-5.5a1.14,1.14,0,1,0-1.37,1.83L43.92,34H41.83A9.37,9.37,0,0,1,32.47,24.59Z"/><circle class="cls-1" cx="70.62" cy="60.08" r="1.15"/><path class="cls-1" d="M72.11,29.37A4.59,4.59,0,0,0,67.53,34v9.16a4.55,4.55,0,0,0-3.24,1.34L61.71,47c-2.19,2.19-7.07,3-7.08,3a6.78,6.78,0,0,0-6.12,6.77v15a1.14,1.14,0,0,0,1.14,1.14H61.8a1.14,1.14,0,0,0,1.14-1.14V65.6l3.75-1.87a1.15,1.15,0,0,0,.52-1.54,1.14,1.14,0,0,0-1.54-.51l-4.38,2.19a1.14,1.14,0,0,0-.64,1v5.73H50.8V56.81a4.5,4.5,0,0,1,4.07-4.49s5.66-.86,8.46-3.66l2.58-2.57a2.28,2.28,0,0,1,2.38-.55h0a2.3,2.3,0,0,1,.86,3.79l-5.87,5.86a1.15,1.15,0,0,0,1.62,1.62L70.77,51a4.59,4.59,0,0,0-1-7.21V34a2.29,2.29,0,1,1,4.58,0V49.52a12.64,12.64,0,0,1-1.53,6,1.14,1.14,0,0,0,2,1.09,14.82,14.82,0,0,0,1.81-7.11V34A4.59,4.59,0,0,0,72.11,29.37Z"/><path class="cls-1" d="M47.36,94.72a47.37,47.37,0,0,1-18.43-91A47.36,47.36,0,0,1,80.85,80.85,47.18,47.18,0,0,1,47.36,94.72Zm0-92A44.61,44.61,0,1,0,92,47.36,44.66,44.66,0,0,0,47.36,2.75Z"/></g></g></g></svg>