<svg xmlns="http://www.w3.org/2000/svg" viewBox="0 0 25.25 25.25"><defs><style>.cls-1{fill:#f5f5f5;}.cls-2{fill:none;stroke:#f5f5f5;stroke-miterlimit:10;stroke-width:0.25px;}</style></defs><g id="Layer_2" data-name="Layer 2"><g id="Guide"><path class="cls-1" d="M20.29,15.81A4.6,4.6,0,0,1,19,19a4.6,4.6,0,0,1-3.23,1.25c-1.07.06-2.12.05-3.18.05s-2.12,0-3.19-.05A4.6,4.6,0,0,1,6.21,19,4.6,4.6,0,0,1,5,15.81c-.06-1.07,0-2.12,0-3.18s0-2.12,0-3.19A4.6,4.6,0,0,1,6.21,6.21,4.6,4.6,0,0,1,9.44,5c1.07-.06,2.12,0,3.19,0s2.11,0,3.18,0A4.6,4.6,0,0,1,19,6.21a4.6,4.6,0,0,1,1.25,3.23c.06,1.07.05,2.12.05,3.19S20.35,14.74,20.29,15.81ZM8.08,6.61A2.57,2.57,0,0,0,6.61,8.08a17.1,17.1,0,0,0-.31,4.55,17.05,17.05,0,0,0,.31,4.54,2.57,2.57,0,0,0,1.47,1.47,17.1,17.1,0,0,0,4.55.31,17.05,17.05,0,0,0,4.54-.31,2.57,2.57,0,0,0,1.47-1.47A17.05,17.05,0,0,0,19,12.63a17.1,17.1,0,0,0-.31-4.55,2.57,2.57,0,0,0-1.47-1.47,17.05,17.05,0,0,0-4.54-.31A17.1,17.1,0,0,0,8.08,6.61Zm4.55,10a4,4,0,1,1,3.95-3.95A4,4,0,0,1,12.63,16.58Zm0-6.53a2.58,2.58,0,1,0,2.57,2.58A2.59,2.59,0,0,0,12.63,10.05Zm4.11-.62a.93.93,0,0,1,0-1.85.93.93,0,1,1,0,1.85Z"/><rect class="cls-2" x="0.13" y="0.13" width="25" height="25"/></g></g></svg>