<svg xmlns="http://www.w3.org/2000/svg" viewBox="0 0 94.72 94.72"><defs><style>.cls-1{fill:#fff;}</style></defs><g id="Layer_2" data-name="Layer 2"><g id="Body"><g id="Infor"><path class="cls-1" d="M46.78,39.11a6.31,6.31,0,1,0,6.3,6.3A6.3,6.3,0,0,0,46.78,39.11Zm0,11a4.7,4.7,0,1,1,4.7-4.7h0A4.69,4.69,0,0,1,46.78,50.11Z"/><path class="cls-1" d="M49.53,44.61a.8.8,0,0,0-.8.8,2,2,0,0,1-1,1.69.81.81,0,0,0-.29,1.1.8.8,0,0,0,1.1.28h0a3.57,3.57,0,0,0,1.77-3.07A.8.8,0,0,0,49.53,44.61Z"/><path class="cls-1" d="M67.51,43.54a3.42,3.42,0,0,0,.9.12,3.56,3.56,0,0,0,2.51-6.07l-.18-.16a7.14,7.14,0,0,0-.44-5.59c-1.93-3.34-7-4.43-13.92-3.05-2.27-6.7-5.75-10.53-9.6-10.53s-7.32,3.83-9.6,10.53c-6.94-1.38-12-.29-13.91,3.05a7.1,7.1,0,0,0-.47,5.47A3.55,3.55,0,0,0,26,43.5c.47.64,1,1.28,1.55,1.92C22.92,50.73,21.34,55.66,23.27,59c1.38,2.4,4.37,3.64,8.51,3.64a28,28,0,0,0,5.4-.59c2.28,6.7,5.76,10.53,9.6,10.53a7.17,7.17,0,0,0,5-2.35,3.55,3.55,0,0,0,3.93-5.76l-.18-.17c.3-.71.59-1.46.86-2.25a27.89,27.89,0,0,0,5.39.59c4.15,0,7.14-1.24,8.52-3.64,1.93-3.33.34-8.26-4.32-13.57C66.52,44.8,67,44.17,67.51,43.54Zm2.27-2.06a1.94,1.94,0,0,1-2.75,0h0a1.95,1.95,0,1,1,2.76,0Zm-.87-8.84a5.36,5.36,0,0,1,.37,4,3.55,3.55,0,0,0-3.39,5.95l.19.16c-.38.49-.77,1-1.18,1.44a49.14,49.14,0,0,0-6.4-5.57,49.25,49.25,0,0,0-1.62-8.33c6-1.16,10.51-.32,12,2.32ZM55.3,60.16A45.36,45.36,0,0,1,48.76,58c1.37-.67,2.73-1.38,4.07-2.16s2.65-1.6,3.89-2.45A45.23,45.23,0,0,1,55.3,60.16Zm-17,0a46.53,46.53,0,0,1-1.42-6.73c1.25.85,2.55,1.68,3.9,2.45s2.7,1.5,4.07,2.16a45.49,45.49,0,0,1-6.55,2.12Zm0-29.5a46.8,46.8,0,0,1,6.55,2.13q-2.06,1-4.07,2.16c-1.35.77-2.65,1.6-3.9,2.45a46.94,46.94,0,0,1,1.42-6.74ZM34.87,50a45.56,45.56,0,0,1-5.12-4.6,45.47,45.47,0,0,1,5.12-4.59c-.12,1.51-.18,3-.18,4.59S34.75,48.5,34.87,50Zm6.67,4.48c-1.73-1-3.39-2.07-4.95-3.19-.19-1.92-.29-3.9-.29-5.89s.1-4,.29-5.88c1.55-1.12,3.22-2.19,4.95-3.2s3.48-1.89,5.24-2.69c1.76.8,3.53,1.7,5.24,2.69s3.4,2.08,5,3.2c.19,1.92.29,3.9.29,5.88s-.1,4-.29,5.89a58.49,58.49,0,0,1-5,3.19,57.75,57.75,0,0,1-5.24,2.7c-1.76-.8-3.52-1.7-5.24-2.7ZM55.3,30.66a45.77,45.77,0,0,1,1.42,6.73c-1.24-.85-2.55-1.67-3.89-2.45s-2.7-1.49-4.07-2.15a46.67,46.67,0,0,1,6.54-2.13Zm3.4,10.16a44.52,44.52,0,0,1,5.11,4.59A44.6,44.6,0,0,1,58.7,50c.11-1.51.17-3,.17-4.6S58.81,42.33,58.7,40.82Zm-11.92-21c3,0,6,3.45,8,9.27a50.37,50.37,0,0,0-8,2.75,50.26,50.26,0,0,0-8-2.75C40.77,23.31,43.74,19.86,46.78,19.86ZM23.61,41.48h0a1.95,1.95,0,1,1,2.75,0,1.94,1.94,0,0,1-2.75,0Zm3.88-3.89a3.53,3.53,0,0,0-3.21-1,5.36,5.36,0,0,1,.37-4c1.53-2.64,6-3.48,12-2.31a49.13,49.13,0,0,0-1.62,8.32,49.14,49.14,0,0,0-6.4,5.57c-.45-.51-.86-1-1.25-1.53l.07-.07a3.55,3.55,0,0,0,0-5Zm-2.84,20.6c-1.52-2.64,0-6.93,4-11.58a49.14,49.14,0,0,0,6.4,5.57,49.13,49.13,0,0,0,1.62,8.32c-6,1.17-10.51.33-12-2.31ZM54.58,68.35a2,2,0,1,1,0-2.76A1.93,1.93,0,0,1,55.15,67,2,2,0,0,1,54.58,68.35ZM53.2,63.42A3.55,3.55,0,0,0,49.65,67a3.59,3.59,0,0,0,.83,2.28A5.35,5.35,0,0,1,46.79,71c-3,0-6-3.45-8-9.26a50.72,50.72,0,0,0,8-2.75,50.26,50.26,0,0,0,8,2.75c-.22.64-.45,1.26-.7,1.84a3.5,3.5,0,0,0-.91-.12Zm15.71-5.23c-1.52,2.64-6,3.48-12,2.31a49.13,49.13,0,0,0,1.62-8.32,48.41,48.41,0,0,0,6.39-5.57c4,4.65,5.54,8.94,4,11.58Z"/><path class="cls-1" d="M47.36,94.72a47.37,47.37,0,0,1-18.43-91A47.36,47.36,0,0,1,80.85,80.85,47.18,47.18,0,0,1,47.36,94.72Zm0-92A44.61,44.61,0,1,0,92,47.36,44.66,44.66,0,0,0,47.36,2.75Z"/></g></g></g></svg>