<svg xmlns="http://www.w3.org/2000/svg" viewBox="0 0 60 36"><defs><style>.cls-1{fill:none;stroke:#fff;stroke-miterlimit:10;opacity:0.5;}</style></defs><g id="Layer_2" data-name="Layer 2"><g id="Body"><g id="Enroll"><path class="cls-1" d="M13.7,1.11C18.55,7.17,29.78,19,43.58,19.2a1.6,1.6,0,0,0,1.58-1.33l1-5.78a1.62,1.62,0,0,1,2.7-.9L59,20.59a1.58,1.58,0,0,1,.17,2.14L49.58,34.88a1.62,1.62,0,0,1-2.89-.81l-.6-5.73A1.6,1.6,0,0,0,44,27C37.78,28.86,17,33.25.89,14.83a1.61,1.61,0,0,1,.89-2.62L9,10.7A1.59,1.59,0,0,0,10.3,9.25L10.82,2A1.62,1.62,0,0,1,13.7,1.11Z"/></g></g></g></svg>