<svg xmlns="http://www.w3.org/2000/svg" viewBox="0 0 94.72 94.72"><defs><style>.cls-1{fill:#fff;}</style></defs><g id="Layer_2" data-name="Layer 2"><g id="Body"><g id="Infor"><path class="cls-1" d="M77.84,30.41a1.68,1.68,0,0,0-1.5-.28L52.05,37a1.71,1.71,0,0,0-1.25,1.65V61.92A6.8,6.8,0,0,0,47.36,61a6.88,6.88,0,1,0,6.88,6.87v-21l20.85-5.9V55.05a6.81,6.81,0,0,0-3.44-.93A6.88,6.88,0,1,0,78.53,61V31.78A1.71,1.71,0,0,0,77.84,30.41ZM47.36,71.31a3.44,3.44,0,1,1,3.44-3.44A3.45,3.45,0,0,1,47.36,71.31Zm24.29-6.88A3.44,3.44,0,1,1,75.09,61,3.44,3.44,0,0,1,71.65,64.43Zm3.44-27.08L54.24,43.26V40l20.85-5.9Z"/><path class="cls-1" d="M43.84,28.28a34.6,34.6,0,0,1-8.54-8.46l-2-3a1.71,1.71,0,0,0-3.14.95V44.73a6.88,6.88,0,1,0,3.43,6V23.35a40.9,40.9,0,0,0,8.2,7.7,5.16,5.16,0,0,1-3,9.32,1.72,1.72,0,0,0,0,3.44,8.59,8.59,0,0,0,5.07-15.53ZM26.74,54.12a3.44,3.44,0,1,1,3.44-3.44A3.44,3.44,0,0,1,26.74,54.12Z"/><path class="cls-1" d="M47.36,94.72a47.37,47.37,0,0,1-18.43-91A47.36,47.36,0,0,1,80.85,80.85,47.18,47.18,0,0,1,47.36,94.72Zm0-92A44.61,44.61,0,1,0,92,47.36,44.66,44.66,0,0,0,47.36,2.75Z"/></g></g></g></svg>