<svg xmlns="http://www.w3.org/2000/svg" viewBox="0 0 59.07 58.38"><defs><style>.cls-1{fill:#00468b;}</style></defs><g id="Layer_2" data-name="Layer 2"><g id="Body"><path class="cls-1" d="M39.45,37.54a2.39,2.39,0,0,1-2.54-2.2,2.57,2.57,0,0,1,5.08,0,1.16,1.16,0,0,0,2.31,0A4.59,4.59,0,0,0,40.6,31v-.6a1.15,1.15,0,1,0-2.3,0V31a4.58,4.58,0,0,0-3.69,4.37,4.68,4.68,0,0,0,4.84,4.5A2.22,2.22,0,1,1,36.91,42a1.15,1.15,0,0,0-2.3,0,4.58,4.58,0,0,0,3.69,4.37v.5a1.15,1.15,0,1,0,2.3,0v-.5A4.59,4.59,0,0,0,44.3,42,4.69,4.69,0,0,0,39.45,37.54Z"/><path class="cls-1" d="M52.09,30.67A15.12,15.12,0,0,0,46,25.24a1.15,1.15,0,1,0-1,2.08,12.7,12.7,0,0,1,5.72,17.4,1.15,1.15,0,0,0,.47,1.56,1.19,1.19,0,0,0,.54.13,1.14,1.14,0,0,0,1-.61,15,15,0,0,0-.61-15.13Z"/><path class="cls-1" d="M41.26,23.77h-.07a1.15,1.15,0,1,0,0,2.3h.07a1.15,1.15,0,1,0,0-2.3Z"/><path class="cls-1" d="M34,50.21a12.72,12.72,0,0,1-5.73-17.4,1.15,1.15,0,1,0-2-1.08A15,15,0,0,0,33,52.29a1.09,1.09,0,0,0,.49.11A1.15,1.15,0,0,0,34,50.21Z"/><path class="cls-1" d="M37.73,51.45h-.07a1.16,1.16,0,0,0,0,2.31h.08a1.16,1.16,0,0,0,0-2.31Z"/><path class="cls-1" d="M44.69,19.86a5.32,5.32,0,0,0-.51-.94h3a5.31,5.31,0,0,0,0-10.61H38A5.31,5.31,0,0,0,33.57,0H5.31a5.31,5.31,0,1,0,0,10.61h9.24a5.26,5.26,0,0,0,0,6h-3a5.3,5.3,0,0,0-3.3,9.46,5.3,5.3,0,0,0,0,8.31,5.3,5.3,0,0,0,0,8.31,5.3,5.3,0,0,0,3.3,9.46H25.13A19.61,19.61,0,1,0,44.69,19.86Zm2.5-9.25a3,3,0,0,1,0,6H18.92a3,3,0,0,1,0-6ZM5.31,8.31a3,3,0,0,1,0-6H33.57a3,3,0,0,1,0,6Zm6.23,10.61H39.8a3,3,0,0,1,1.31.3c-.54,0-1.1-.07-1.65-.07a19.55,19.55,0,0,0-13.88,5.77h-14a3,3,0,0,1,0-6Zm0,8.31H23.61a19.46,19.46,0,0,0-3,6h-9.1a3,3,0,0,1,0-6Zm0,8.3h8.57a20.21,20.21,0,0,0-.27,3.23,19.42,19.42,0,0,0,.2,2.77h-8.5a3,3,0,0,1,0-6Zm0,14.31a3,3,0,0,1,0-6h9a19.55,19.55,0,0,0,2.77,6Zm27.92,6.23a17.31,17.31,0,1,1,17.3-17.31A17.32,17.32,0,0,1,39.46,56.07Z"/></g></g></svg>