<svg xmlns="http://www.w3.org/2000/svg" viewBox="0 0 25.25 25.25"><defs><style>.cls-1{fill:#f5f5f5;}.cls-2{fill:none;stroke:#f5f5f5;stroke-miterlimit:10;stroke-width:0.25px;}</style></defs><g id="Layer_2" data-name="Layer 2"><g id="Guide"><path class="cls-1" d="M18.91,9.4c0,.14,0,.28,0,.42A9.23,9.23,0,0,1,4.71,17.59a5.16,5.16,0,0,0,.79,0,6.5,6.5,0,0,0,4-1.38,3.24,3.24,0,0,1-3-2.25,4.07,4.07,0,0,0,.61.05A3.49,3.49,0,0,0,8,13.94a3.24,3.24,0,0,1-2.6-3.18v0a3.25,3.25,0,0,0,1.46.41,3.26,3.26,0,0,1-1-4.34,9.23,9.23,0,0,0,6.68,3.4,3.82,3.82,0,0,1-.08-.75A3.25,3.25,0,0,1,18,7.22a6.5,6.5,0,0,0,2.06-.78,3.3,3.3,0,0,1-1.43,1.79,6.63,6.63,0,0,0,1.87-.5A7,7,0,0,1,18.91,9.4Z"/><rect class="cls-2" x="0.13" y="0.13" width="25" height="25"/></g></g></svg>