<svg xmlns="http://www.w3.org/2000/svg" viewBox="0 0 94.72 94.72"><defs><style>.cls-1{fill:#fff;}</style></defs><g id="Layer_2" data-name="Layer 2"><g id="Body"><g id="Infor"><g id="Out_line" data-name="Out line"><path class="cls-1" d="M26.16,61.53A3.81,3.81,0,0,1,25.82,60V58.85a90.89,90.89,0,0,1,4.46-28.1H50.36c-.85,2.64-1.58,5.35-2.18,8l1.79.4c.63-2.84,1.41-5.68,2.31-8.45h2a3.66,3.66,0,0,0,3.66-3.67V24.33a.91.91,0,0,0-.91-.91H52.4a3.68,3.68,0,0,1,3.67-3.67h.17a3.66,3.66,0,0,1,3.53,2.7l1.35,4.95c.32,1.17.62,2.37.89,3.55l1.79-.41c-.28-1.21-.58-2.43-.91-3.63L61.54,22a5.5,5.5,0,0,0-5.3-4H31.32a5.5,5.5,0,0,0-5.5,5.5v3.66a3.68,3.68,0,0,0,2.59,3.51A92.51,92.51,0,0,0,24,58.85V60a5.63,5.63,0,0,0,.5,2.32ZM56.07,25.25v1.83a1.84,1.84,0,0,1-3.67,0V25.25ZM27.65,27.08V23.42a3.68,3.68,0,0,1,3.67-3.67H52a5.51,5.51,0,0,0-1.4,3.67v3.66a3.63,3.63,0,0,0,.49,1.83H29.49A1.85,1.85,0,0,1,27.65,27.08Z"/><path class="cls-1" d="M70,42.26l-.42,1.79c5.57,1.3,7.54,3,7.54,4.11s-1.32,2-3.77,3c-.43-1.37-2.15-2.49-5.14-3.36l-.51,1.76c2.55.74,3.78,1.63,3.91,2.19a55.21,55.21,0,0,1-15.57,1.93A55.21,55.21,0,0,1,40.5,51.73c.18-.86,2.8-2.33,8.36-3.1l-.25-1.81a27,27,0,0,0-6.86,1.72c-1.67.74-2.68,1.61-3,2.6-2.45-1-3.77-2-3.77-3,0-.38.31-1.76,4.36-3.2A47.07,47.07,0,0,1,51.54,42.8L51.43,41a48.59,48.59,0,0,0-12.69,2.27c-4.62,1.64-5.59,3.58-5.59,4.92a15.61,15.61,0,0,0,1.06,5.65l1.86,4.77,1.71-.67-1.86-4.77a13.18,13.18,0,0,1-.52-1.65,17.64,17.64,0,0,0,4.86,2.09A58.69,58.69,0,0,0,56.07,55.5a58.69,58.69,0,0,0,15.81-1.92,17.64,17.64,0,0,0,4.86-2.09,13.18,13.18,0,0,1-.52,1.65l-3.15,8.1a8.52,8.52,0,0,1-1.22,2.13l1.44,1.14a10.38,10.38,0,0,0,1.49-2.61l3.15-8.09a15.39,15.39,0,0,0,1-5.65C79,44.85,73.37,43,70,42.26Z"/><path class="cls-1" d="M62.75,35.17a18.75,18.75,0,0,0-10.36,9.21l-2.64,5.27,1.64.82L54,45.2a16.94,16.94,0,0,1,8.67-8.05,3.27,3.27,0,0,0,.17.53,26.88,26.88,0,0,0-6.44,8.25l-2.7,5.24,1.63.84,2.7-5.24a25,25,0,0,1,6-7.65l.31.22.38.19c-.36.69-.75,1.4-1.15,2.15-1,1.86-2,3.8-3.09,5.8L58.39,51.4l1.62.86,2.08-3.92q1.57-3,3.08-5.8L66.53,40a16.72,16.72,0,0,1-2,9l-1.28,2.36,1.61.88,1.28-2.36A18.52,18.52,0,0,0,68.3,39.14a3.32,3.32,0,0,0,.93-1l7.3-11.94a3.59,3.59,0,0,0-6.13-3.74L63.11,34.39A3.47,3.47,0,0,0,62.75,35.17Zm1.92.17L72,23.4a1.76,1.76,0,0,1,3,1.83h0L67.67,37.17a1.75,1.75,0,1,1-3-1.82Z"/><path class="cls-1" d="M69.62,64A3.45,3.45,0,0,0,67,63.08l-.87.08a6.41,6.41,0,0,0-5.48-3.08H34.07a6.41,6.41,0,0,0-5.48,3.08l-.86-.08a3.43,3.43,0,1,0-.62,6.83h.62l.86-.08a6.45,6.45,0,0,0,5.48,3.08H60.65A6.33,6.33,0,0,0,65.19,71a6.52,6.52,0,0,0,1-1.2l.86.08h.31a3.42,3.42,0,0,0,2.31-6ZM27.56,68.08a1.59,1.59,0,0,1-.29-3.17h.29l5.52.5a1.09,1.09,0,0,1,0,2.17h0Zm3.18,1.56,2.5-.23h0a2.93,2.93,0,0,0,0-5.83l-2.51-.22.1-.11a4.59,4.59,0,1,1,3.24,7.83A4.66,4.66,0,0,1,30.74,69.64Zm33.15.1a4.55,4.55,0,0,1-3.24,1.34H38.56a6.4,6.4,0,0,0,.11-9l-.11-.12H60.65a4.58,4.58,0,0,1,3.24,7.83Zm3.42-1.65h-.15l-.28,0a6.63,6.63,0,0,0,0-3.13l.28,0a1.59,1.59,0,1,1,.29,3.17Z"/></g><path class="cls-1" d="M47.36,94.72a47.37,47.37,0,0,1-18.43-91A47.36,47.36,0,0,1,80.85,80.85,47.18,47.18,0,0,1,47.36,94.72Zm0-92A44.61,44.61,0,1,0,92,47.36,44.66,44.66,0,0,0,47.36,2.75Z"/></g></g></g></svg>