<svg xmlns="http://www.w3.org/2000/svg" viewBox="0 0 94.72 94.72"><defs><style>.cls-1{fill:#fff;}</style></defs><g id="Layer_2" data-name="Layer 2"><g id="Body"><g id="Infor"><path class="cls-1" d="M73.26,39.68H72L70.3,26.25a8.54,8.54,0,0,0-2.39-5,7.3,7.3,0,0,0-5.26-2.19H52.52a1.15,1.15,0,1,0,0,2.29h.57v3.44H41.63V21.35h.58a1.15,1.15,0,0,0,0-2.29H32.07a7.3,7.3,0,0,0-5.26,2.19,8.52,8.52,0,0,0-2.38,5L22.75,39.68H21.47A3.45,3.45,0,0,0,18,43.12v2.29a3.44,3.44,0,0,0,2.41,3.28l2.18,17.49c.41,3.29,2.77,5.59,5.72,5.59h38c3,0,5.31-2.3,5.72-5.59l2.19-17.49a3.44,3.44,0,0,0,2.4-3.28V43.12A3.44,3.44,0,0,0,73.26,39.68ZM55.38,21.35h7.27a5.06,5.06,0,0,1,3.64,1.52A6.29,6.29,0,0,1,68,26.53l1.65,13.15H66.21l-1.6-12.74a2.79,2.79,0,0,0-.75-1.64,1.69,1.69,0,0,0-1.21-.51H55.38ZM32.3,42h6.35l-3.18,3.17Zm4.79,4.79,4.33-4.32,4.32,4.32L41.42,51.1ZM44.18,42h6.36l-3.18,3.17Zm3.18,6.41,4.33,4.33-3.52,3.51a1.14,1.14,0,0,1-1.62,0L43,52.72Zm6,2.71L49,46.77l4.33-4.32,4.32,4.32Zm5.94-6L56.07,42h6.36ZM30.83,39.68l1.55-12.45,0-.15h29.9l0,.15L63.9,39.68ZM26.7,26.53a6.29,6.29,0,0,1,1.73-3.66,5.06,5.06,0,0,1,3.64-1.52h7.27v3.44H32.07a1.7,1.7,0,0,0-1.21.51,2.79,2.79,0,0,0-.75,1.64L28.52,39.68H25.06ZM20.32,43.12A1.15,1.15,0,0,1,21.47,42h7.59l4.58,4.58H21.47a1.15,1.15,0,0,1-1.15-1.15ZM69.83,65.9c-.22,1.72-1.39,3.57-3.45,3.57h-38c-2.06,0-3.23-1.85-3.44-3.57L22.77,48.85H35.93l9,9a3.43,3.43,0,0,0,4.86,0l4.33-4.32h0l4.67-4.68H72ZM74.4,45.41a1.14,1.14,0,0,1-1.14,1.15H61.09L65.67,42h7.59a1.14,1.14,0,0,1,1.14,1.14Z"/><path class="cls-1" d="M66.38,64.89h-6.3a1.15,1.15,0,1,0,0,2.29h6.3a1.15,1.15,0,1,0,0-2.29Z"/><path class="cls-1" d="M54.92,64.89h0A1.15,1.15,0,1,0,56.07,66,1.14,1.14,0,0,0,54.92,64.89Z"/><path class="cls-1" d="M47.36,21.35a1.15,1.15,0,1,0,0-2.29h0a1.15,1.15,0,0,0,0,2.29Z"/><path class="cls-1" d="M47.36,94.72a47.37,47.37,0,0,1-18.43-91A47.36,47.36,0,0,1,80.85,80.85,47.18,47.18,0,0,1,47.36,94.72Zm0-92A44.61,44.61,0,1,0,92,47.36,44.66,44.66,0,0,0,47.36,2.75Z"/></g></g></g></svg>