<svg xmlns="http://www.w3.org/2000/svg" viewBox="0 0 60 36"><defs><style>.cls-1{fill:none;stroke:#fff;stroke-miterlimit:10;opacity:0.5;}</style></defs><g id="Layer_2" data-name="Layer 2"><g id="Body"><g id="Enroll"><path class="cls-1" d="M46.3,1.11C41.45,7.17,30.22,19,16.42,19.2a1.6,1.6,0,0,1-1.58-1.33l-1-5.78a1.62,1.62,0,0,0-2.7-.9L1,20.59a1.58,1.58,0,0,0-.17,2.14l9.58,12.15a1.62,1.62,0,0,0,2.89-.81l.6-5.73A1.6,1.6,0,0,1,16,27C22.22,28.86,43,33.25,59.11,14.83a1.61,1.61,0,0,0-.89-2.62L51,10.7A1.59,1.59,0,0,1,49.7,9.25L49.18,2A1.62,1.62,0,0,0,46.3,1.11Z"/></g></g></g></svg>