<svg xmlns="http://www.w3.org/2000/svg" viewBox="0 0 94.72 94.72"><defs><style>.cls-1{fill:#fff;}</style></defs><g id="Layer_2" data-name="Layer 2"><g id="Body"><g id="Infor"><path class="cls-1" d="M33.44,65.56a1.72,1.72,0,0,1-1.22-.51,15.15,15.15,0,0,1,0-21.4,1.72,1.72,0,1,1,2.43,2.43,11.71,11.71,0,0,0,0,16.54,1.72,1.72,0,0,1,0,2.43,1.68,1.68,0,0,1-1.21.51Z"/><path class="cls-1" d="M39.88,60.26a1.68,1.68,0,0,1-1.21-.51,7.64,7.64,0,0,1,0-10.8,1.72,1.72,0,0,1,2.43,2.43,4.2,4.2,0,0,0,0,5.94,1.73,1.73,0,0,1-1.22,2.94Z"/><path class="cls-1" d="M27,70.71a1.67,1.67,0,0,1-1.21-.5,22.45,22.45,0,0,1,0-31.72,1.72,1.72,0,1,1,2.43,2.43,19,19,0,0,0,0,26.86A1.72,1.72,0,0,1,27,70.71Z"/><path class="cls-1" d="M71.63,74.8a1.71,1.71,0,0,1-1.57-1l-2.32-5.13a2.19,2.19,0,0,0-2-1.28c-3,.05-6.79.11-8.71.07a5.17,5.17,0,0,1-3.9-1.64A5,5,0,0,1,52,61.94a2,2,0,0,0-.61-1.74,4.75,4.75,0,0,1-1-1.78,3.18,3.18,0,0,1,1.19-3.3l.15-.11,3.45-2.17-5.16-2-.13-.05a3,3,0,0,1-1.66-3.28l.67-3.5a1.32,1.32,0,0,0-.22-1,1.35,1.35,0,0,0-.89-.54l-3.4-.5a2.85,2.85,0,0,1-2-4.26l6.48-11a8.6,8.6,0,0,0,1.09-5.57l-.44-3.05a1.72,1.72,0,0,1,3.4-.5l.44,3.06a12,12,0,0,1-1.53,7.81l-6,10.24,2.53.37a4.75,4.75,0,0,1,4,5.6l-.6,3.15,5.8,2.2a2.86,2.86,0,0,1,.51,5.1l-4.14,2.61.24.31a5.31,5.31,0,0,1,1.34,4.22,1.7,1.7,0,0,0,.3,1.25,2,2,0,0,0,1.4.48c1.86,0,5.56,0,8.58-.07a5.63,5.63,0,0,1,5.23,3.31l2.31,5.13a1.71,1.71,0,0,1-.86,2.27,1.61,1.61,0,0,1-.7.15ZM56.21,53.25Z"/><path class="cls-1" d="M47.36,94.72a47.37,47.37,0,0,1-18.43-91A47.36,47.36,0,0,1,80.85,80.85,47.18,47.18,0,0,1,47.36,94.72Zm0-92A44.61,44.61,0,1,0,92,47.36,44.66,44.66,0,0,0,47.36,2.75Z"/></g></g></g></svg>