<svg xmlns="http://www.w3.org/2000/svg" viewBox="0 0 46.25 58.95"><defs><style>.cls-1{fill:#00468b;}</style></defs><g id="Layer_2" data-name="Layer 2"><g id="Body"><path class="cls-1" d="M38.54,22A15.42,15.42,0,1,0,23.13,37.4,15.43,15.43,0,0,0,38.54,22ZM23.13,35.67A13.68,13.68,0,1,1,36.81,22,13.7,13.7,0,0,1,23.13,35.67Z"/><path class="cls-1" d="M33.86,18.61a1.23,1.23,0,0,0-1.16-.84H26.27l-2-6.12a1.22,1.22,0,0,0-2.31,0l-2,6.12H13.55a1.22,1.22,0,0,0-.72,2.2L18,23.75l-2,6.12a1.23,1.23,0,0,0,.44,1.36,1.22,1.22,0,0,0,1.43,0l5.21-3.78,5.2,3.78a1.25,1.25,0,0,0,.71.23,1.23,1.23,0,0,0,.72-.23,1.22,1.22,0,0,0,.44-1.36l-2-6.12L33.42,20A1.23,1.23,0,0,0,33.86,18.61Zm-7,4a1.23,1.23,0,0,0-.44,1.36l1.62,5-4.23-3.07a1.16,1.16,0,0,0-.71-.23,1.21,1.21,0,0,0-.72.23L18.18,28.9l1.62-5a1.23,1.23,0,0,0-.44-1.36L15.13,19.5h5.23a1.21,1.21,0,0,0,1.15-.84l1.62-5,1.61,5a1.21,1.21,0,0,0,1.15.84h5.23Z"/><path class="cls-1" d="M46.07,50.56,38,36.34l1.41-.45a4,4,0,0,0,2.75-4L42,29.86a2.22,2.22,0,0,1,.64-1.68l1.44-1.47a4,4,0,0,0,.59-4.8l-1.06-1.77a2.27,2.27,0,0,1-.21-1.78l.59-2a4,4,0,0,0-1.71-4.51l-1.75-1.08a2.23,2.23,0,0,1-1-1.48l-.39-2a4,4,0,0,0-3.62-3.2l-2.05-.14a2.23,2.23,0,0,1-1.6-.84L30.6,1.49A4,4,0,0,0,25.91.33L24,1.17h0a2.23,2.23,0,0,1-1.79,0L20.34.33a4,4,0,0,0-4.69,1.16L14.37,3.1a2.23,2.23,0,0,1-1.59.84l-2.06.14A4,4,0,0,0,7.1,7.28l-.38,2a2.24,2.24,0,0,1-1,1.48L3.94,11.87a4,4,0,0,0-1.71,4.51l.59,2a2.23,2.23,0,0,1-.21,1.78l-1,1.77a4,4,0,0,0,.58,4.8l1.44,1.47a2.22,2.22,0,0,1,.64,1.68l-.11,2.06a4,4,0,0,0,2.75,4l1.41.45L.18,50.56a1.35,1.35,0,0,0,1.24,2l6.77-.35,3.15,6a1.35,1.35,0,0,0,1.17.72h0a1.35,1.35,0,0,0,1.17-.68L22,43.8a3.93,3.93,0,0,0,2.35,0l8.24,14.47a1.35,1.35,0,0,0,1.17.68h0a1.35,1.35,0,0,0,1.17-.72l3.15-6,6.77.35a1.35,1.35,0,0,0,1.24-2ZM12.55,56.82,9.68,51.35l1.7-3a.87.87,0,0,0-.33-1.18.86.86,0,0,0-1.17.33l-1.7,3L2,50.82,9.8,37.16a2,2,0,0,1,.36.55L11,39.58a3.88,3.88,0,0,0,2.2,2.05L11.88,44a.87.87,0,0,0,.32,1.18.88.88,0,0,0,1.18-.32l1.71-3,.21,0,2-.36a2.28,2.28,0,0,1,1.75.43L20.45,43ZM24.25,42h0A2.23,2.23,0,0,1,22,42h0l-.24-.16-1.63-1.25a3.94,3.94,0,0,0-2.42-.83,3.79,3.79,0,0,0-.67.06l-2,.36-.39,0h0a2.26,2.26,0,0,1-2-1.3L11.73,37A4,4,0,0,0,10,35.13h0l-.06,0h0a4.93,4.93,0,0,0-.53-.22l-2-.62A2.22,2.22,0,0,1,5.84,32L5.94,30a3.92,3.92,0,0,0-1.13-3L3.37,25.5A2.24,2.24,0,0,1,3,22.79l1-1.77a3.94,3.94,0,0,0,.39-3.16l-.6-2a2.23,2.23,0,0,1,1-2.54L6.6,12.26A4,4,0,0,0,8.41,9.63l.39-2a2.23,2.23,0,0,1,2-1.81l2.05-.14a4,4,0,0,0,2.83-1.48L17,2.57a2.23,2.23,0,0,1,2.64-.65l1.89.83a4,4,0,0,0,3.19,0l1.89-.83a2.23,2.23,0,0,1,2.64.65l1.28,1.61a3.93,3.93,0,0,0,2.83,1.48l2,.14a2.23,2.23,0,0,1,2,1.81l.39,2a4,4,0,0,0,1.81,2.63l1.76,1.08a2.23,2.23,0,0,1,1,2.54l-.6,2A3.94,3.94,0,0,0,42.16,21l1.05,1.77a2.24,2.24,0,0,1-.33,2.71L41.44,27a3.92,3.92,0,0,0-1.13,3l.1,2.06a2.22,2.22,0,0,1-1.54,2.24l-2,.62a4.93,4.93,0,0,0-.53.22h0l-.06,0h0A4,4,0,0,0,34.52,37l-.86,1.87a2.26,2.26,0,0,1-2,1.3h0l-.38,0-2-.36a3.94,3.94,0,0,0-3.09.77l-1.63,1.25ZM38.07,50.5l-1.71-3a.86.86,0,1,0-1.5.86l1.71,3L33.7,56.82,25.8,43l1.37-1.06a2.28,2.28,0,0,1,1.75-.43l2,.36.21,0,1.71,3a.88.88,0,0,0,1.18.32A.87.87,0,0,0,34.37,44L33,41.63a3.88,3.88,0,0,0,2.2-2.05l.87-1.87a2,2,0,0,1,.36-.55l7.78,13.66Z"/></g></g></svg>