<svg xmlns="http://www.w3.org/2000/svg" viewBox="0 0 25.25 25.25"><defs><style>.cls-1{fill:#f5f5f5;}.cls-2{fill:none;stroke:#f5f5f5;stroke-miterlimit:10;stroke-width:0.25px;}</style></defs><g id="Layer_2" data-name="Layer 2"><g id="Guide"><path class="cls-1" d="M19.8,20a1.87,1.87,0,0,1-1.6,1.46,49.39,49.39,0,0,1-5.57.21,49.48,49.48,0,0,1-5.58-.21A1.86,1.86,0,0,1,5.45,20a15.84,15.84,0,0,1-.26-3.51,16.42,16.42,0,0,1,.26-3.51,1.89,1.89,0,0,1,1.61-1.47,51.66,51.66,0,0,1,5.57-.2,51.85,51.85,0,0,1,5.57.2,1.88,1.88,0,0,1,1.6,1.47,15.79,15.79,0,0,1,.26,3.51A16.46,16.46,0,0,1,19.8,20Zm-10.37-6V13H6.3v.94h1v5.71h1V13.94ZM11.07,3.63l-1.22,4v2.73h-1V7.63a15.9,15.9,0,0,0-.61-2.12L7.58,3.63H8.65l.71,2.64L10,3.63Zm1.07,16v-5h-.89v3.8q-.3.42-.57.42t-.21-.21a2.3,2.3,0,0,1,0-.35V14.69h-.9v3.93a2.43,2.43,0,0,0,.08.73.55.55,0,0,0,.59.37,1.45,1.45,0,0,0,1-.61v.54ZM13.76,8.73a2,2,0,0,1-.28,1.18,1.34,1.34,0,0,1-2.12,0,2,2,0,0,1-.28-1.18V7a1.94,1.94,0,0,1,.28-1.17,1.36,1.36,0,0,1,2.12,0A1.94,1.94,0,0,1,13.76,7Zm-.91-1.94c0-.46-.13-.69-.44-.69s-.43.23-.43.69V8.9c0,.46.14.7.43.7s.44-.24.44-.7Zm2.71,9.4a3.42,3.42,0,0,0-.09-1,.71.71,0,0,0-.72-.57,1.21,1.21,0,0,0-.93.54V13h-.89v6.65h.89v-.48a1.23,1.23,0,0,0,.93.55.71.71,0,0,0,.72-.55,3.55,3.55,0,0,0,.09-1Zm-.9,2c0,.45-.13.67-.39.67a.64.64,0,0,1-.45-.22v-3a.64.64,0,0,1,.45-.22c.26,0,.39.23.39.67Zm2.46-7.88h-.91V9.8a1.42,1.42,0,0,1-1,.63.57.57,0,0,1-.6-.38,2.54,2.54,0,0,1-.08-.75v-4h.92V9a2.22,2.22,0,0,0,0,.35c0,.14.09.22.21.22s.37-.14.57-.43V5.35h.91ZM19,17.94H18a5.27,5.27,0,0,1,0,.61.38.38,0,0,1-.4.36c-.32,0-.47-.23-.47-.69v-.88H19v-1a2,2,0,0,0-.27-1.16,1.36,1.36,0,0,0-2.14,0,1.91,1.91,0,0,0-.28,1.16v1.74a1.88,1.88,0,0,0,.29,1.16,1.28,1.28,0,0,0,1.09.51,1.24,1.24,0,0,0,1.08-.53,1.16,1.16,0,0,0,.21-.54,3.91,3.91,0,0,0,0-.58Zm-.89-1.35h-.91v-.46c0-.45.15-.68.45-.68s.46.23.46.68Z"/><rect class="cls-2" x="0.13" y="0.13" width="25" height="25"/></g></g></svg>