<svg xmlns="http://www.w3.org/2000/svg" viewBox="0 0 58.81 59.07"><defs><style>.cls-1{fill:#00468b;}</style></defs><g id="Layer_2" data-name="Layer 2"><g id="Body"><path class="cls-1" d="M46.64,47.09a1.15,1.15,0,0,0-1.39,1.82l2,1.5a1.19,1.19,0,0,0,.69.23,1.15,1.15,0,0,0,.85-.37l3.74-4.13A1.14,1.14,0,1,0,50.8,44.6l-3,3.35Z"/><path class="cls-1" d="M58.8,41a1.15,1.15,0,0,0-1-1.11c-2.72-.24-6.07-2.07-8.53-4.66a1.15,1.15,0,0,0-.83-.36h0a1.12,1.12,0,0,0-.83.36,17.37,17.37,0,0,1-3.72,2.95,20.55,20.55,0,0,0-8.53-5.71l-.09,0-.79-.27c2.83-2.82,4.74-6.54,4.74-9.87v-1.8a3.78,3.78,0,0,0-.16-7A14.14,14.14,0,0,0,28.87,1.36,1.73,1.73,0,0,0,27.19,0H23a1.72,1.72,0,0,0-1.66,1.28,14.33,14.33,0,0,0-7.07,4.43A14.14,14.14,0,0,0,11,13.47a3.78,3.78,0,0,0-.16,7v1.8c0,3.33,1.91,7,4.74,9.87l-.77.26-.14.05a20.74,20.74,0,0,0-9.34,6.69,26.73,26.73,0,0,0-5,10.92C0,51.6-.3,53.52.74,54.82s2.84,1.43,4.31,1.43h7.49a1.15,1.15,0,1,0,0-2.29H5.05c-1.37,0-2.22-.2-2.52-.58s-.32-1.35,0-2.81c1.19-5.36,4.1-11.92,11.11-15.23-.22,3.87,1.88,6.4,3.21,8a1.09,1.09,0,0,0,.82.41,1.14,1.14,0,0,0,.86-.32L25,37.16l6.45,6.27a1.15,1.15,0,0,0,.8.33h.06a1.09,1.09,0,0,0,.82-.41c1.33-1.6,3.42-4.13,3.21-8a18.07,18.07,0,0,1,5.37,3.86,9.92,9.92,0,0,1-2.67.66A1.15,1.15,0,0,0,38,41a19.24,19.24,0,0,0,2.44,10.46S41.05,52.58,42,54H22.9a1.15,1.15,0,0,0,0,2.29H43.84c1.38,1.52,3,2.82,4.55,2.82,3.72,0,7.94-7.56,8-7.63A19.32,19.32,0,0,0,58.8,41ZM36.67,13.22h-6.3a24.81,24.81,0,0,1-1.46-9.44,11.83,11.83,0,0,1,7.76,9.44ZM23.61,2.29h3c0,4.43.12,7.43,1.32,10.93H22.29C23.49,9.72,23.6,6.72,23.61,2.29Zm-2.3,1.4a24.83,24.83,0,0,1-1.45,9.53H13.29a12,12,0,0,1,8-9.53Zm-9,11.82H20c.07.05.14.06.19,0H37.66a1.5,1.5,0,1,1,0,3H12.3a1.5,1.5,0,1,1,0-3Zm.78,6.77V20.79h23.8v1.49c0,4.36-4.23,9.76-9.05,11.55a7.28,7.28,0,0,1-5.72,0c-4.81-1.8-9-7.2-9-11.55Zm4.75,18.64a7.84,7.84,0,0,1-1.78-6.53c.51-.16,1-.31,1.57-.44a15.67,15.67,0,0,0,3.69,2c.42.15.82.28,1.21.39Zm14.3,0-4.69-4.55c.38-.11.78-.23,1.19-.39a15.44,15.44,0,0,0,3.71-2c.53.13,1,.27,1.56.44a7.79,7.79,0,0,1-1.77,6.52Zm22.22,9.45c-1.36,2.52-4.53,6.42-6,6.42s-4.61-3.9-6-6.42A16.55,16.55,0,0,1,40.26,42,14,14,0,0,0,44,40.66l.13-.06a19.68,19.68,0,0,0,4.22-3A17.11,17.11,0,0,0,56.52,42a16.66,16.66,0,0,1-2.17,8.36Z"/><path class="cls-1" d="M17.72,54a1.15,1.15,0,0,0,0,2.29h0a1.15,1.15,0,1,0,0-2.29Z"/></g></g></svg>