<svg xmlns="http://www.w3.org/2000/svg" viewBox="0 0 59.07 47"><defs><style>.cls-1{fill:#00468b;}</style></defs><g id="Layer_2" data-name="Layer 2"><g id="Body"><path class="cls-1" d="M58.4,26.51a20.9,20.9,0,0,0-14.92-4.32C43.53,3.9,17.67,2.46,15.61,20.55A20.52,20.52,0,0,0,2,25L0,26.63V47H59.07V27ZM29.54,11.1A10.52,10.52,0,0,1,40,22.85a20.66,20.66,0,0,0-3.6,1.37l-4.21,2.06-9.19-4A20.25,20.25,0,0,0,19.05,21,10.52,10.52,0,0,1,29.54,11.1ZM55.61,43.53H3.46V28.29l.74-.59a17,17,0,0,1,17.37-2.28l34,14.93ZM36.3,28.1l1.58-.77a17.42,17.42,0,0,1,17.73,1.41v7.83Z"/><path class="cls-1" d="M27.81,0h3.46V4.75H27.81Z"/><path class="cls-1" d="M19.18,2.57l3.17-1.41L24.28,5.5,21.12,6.91Z"/><path class="cls-1" d="M12.33,8.43l2.31-2.57L18.17,9l-2.31,2.57Z"/><path class="cls-1" d="M8.46,16.57l1.07-3.29,4.52,1.46L13,18Z"/><path class="cls-1" d="M34.82,5.49l1.93-4.34,3.16,1.41L38,6.9Z"/><path class="cls-1" d="M40.89,9l3.53-3.18,2.31,2.58L43.2,11.61Z"/><path class="cls-1" d="M45,14.74l4.51-1.47,1.07,3.3L46.09,18Z"/></g></g></svg>