<svg xmlns="http://www.w3.org/2000/svg" viewBox="0 0 79.61 79.61"><defs><style>.cls-1{fill:#fff;}</style></defs><g id="Layer_2" data-name="Layer 2"><g id="Body"><g id="Gallery"><path class="cls-1" d="M39.81,79.61a39.81,39.81,0,1,1,39.8-39.8A39.85,39.85,0,0,1,39.81,79.61Zm0-78.19A38.39,38.39,0,1,0,78.19,39.81,38.43,38.43,0,0,0,39.81,1.42Z"/><path class="cls-1" d="M31.31,55.82a.67.67,0,0,1-.34-.09.71.71,0,0,1-.37-.62V24.51a.7.7,0,0,1,.37-.62.67.67,0,0,1,.34-.09.73.73,0,0,1,.38.11l23.8,15.3a.73.73,0,0,1,.33.6.71.71,0,0,1-.33.59L31.69,55.7A.66.66,0,0,1,31.31,55.82Zm.71-2,21.77-14L32,25.81Z"/></g></g></g></svg>