<svg xmlns="http://www.w3.org/2000/svg" viewBox="0 0 49.72 49.73"><defs><style>.cls-1{fill:#ce2828;}</style></defs><g id="Layer_2" data-name="Layer 2"><g id="Body"><g id="Menu"><path class="cls-1" d="M0,24.87A24.86,24.86,0,1,0,24.85,0,24.88,24.88,0,0,0,0,24.87Zm.88,0a24,24,0,1,1,24,24A24,24,0,0,1,.88,24.87Z"/><path class="cls-1" d="M14.86,24.87a.44.44,0,0,0,.19.36l14.87,9.56a.46.46,0,0,0,.24.08.43.43,0,0,0,.2-.06.44.44,0,0,0,.24-.39V15.31a.45.45,0,0,0-.22-.38.38.38,0,0,0-.22-.07.4.4,0,0,0-.23.08L15.05,24.5A.44.44,0,0,0,14.86,24.87Zm1.26,0,13.6-8.75V33.61Z"/><polygon class="cls-1" points="16.13 24.87 29.72 33.61 29.72 16.12 16.13 24.87"/></g></g></g></svg>