<svg xmlns="http://www.w3.org/2000/svg" viewBox="0 0 16.04 16.04"><defs><style>.cls-1{fill:#fff;}</style></defs><g id="Layer_2" data-name="Layer 2"><g id="Header"><path class="cls-1" d="M6.41,8,3.55,9.93V5.78Z"/><path class="cls-1" d="M4.17,5.51l-.08-.06h7.85l-.12.11L8.49,8.16a.69.69,0,0,1-.91,0Z"/><path class="cls-1" d="M9.12,8.41l3.28,2.18H3.65L6.92,8.41A1.4,1.4,0,0,0,9.12,8.41Z"/><path class="cls-1" d="M9.63,8l2.86-2.25V9.93Z"/><path class="cls-1" d="M8,0a8,8,0,1,0,8,8A8,8,0,0,0,8,0Zm5.07,11.18H2.94V4.86H13.09Z"/></g></g></svg>