<svg xmlns="http://www.w3.org/2000/svg" viewBox="0 0 16.04 16.04"><defs><style>.cls-1{fill:#fff;}</style></defs><g id="Layer_2" data-name="Layer 2"><g id="Header"><path class="cls-1" d="M9.55,8A1.54,1.54,0,0,1,6.48,8,1.54,1.54,0,1,1,9.55,8Z"/><path class="cls-1" d="M11.61,5.3a1.44,1.44,0,0,0-.35-.53,1.34,1.34,0,0,0-.53-.34,2.55,2.55,0,0,0-.85-.16c-.49,0-.63,0-1.86,0s-1.38,0-1.86,0a2.69,2.69,0,0,0-.86.16,1.48,1.48,0,0,0-.87.87,2.69,2.69,0,0,0-.16.86c0,.48,0,.63,0,1.86s0,1.37,0,1.86a2.55,2.55,0,0,0,.16.85,1.34,1.34,0,0,0,.34.53,1.44,1.44,0,0,0,.53.35,2.69,2.69,0,0,0,.86.16c.48,0,.63,0,1.86,0s1.37,0,1.86,0a2.55,2.55,0,0,0,.85-.16,1.53,1.53,0,0,0,.88-.88,2.55,2.55,0,0,0,.16-.85c0-.49,0-.63,0-1.86s0-1.38,0-1.86A2.69,2.69,0,0,0,11.61,5.3ZM8,10.38A2.37,2.37,0,1,1,10.38,8,2.37,2.37,0,0,1,8,10.38Zm2.46-4.27a.55.55,0,0,1-.56-.55.56.56,0,0,1,1.11,0A.55.55,0,0,1,10.48,6.11Z"/><path class="cls-1" d="M8,0a8,8,0,1,0,8,8A8,8,0,0,0,8,0ZM12.6,9.92A3.33,3.33,0,0,1,12.38,11,2.36,2.36,0,0,1,11,12.38a3.33,3.33,0,0,1-1.11.22c-.49,0-.65,0-1.9,0s-1.41,0-1.9,0A3.46,3.46,0,0,1,5,12.38a2.28,2.28,0,0,1-.81-.53A2.11,2.11,0,0,1,3.66,11a3.1,3.1,0,0,1-.22-1.11c0-.49,0-.65,0-1.9s0-1.41,0-1.9A3.21,3.21,0,0,1,3.66,5a2.15,2.15,0,0,1,.53-.81A2.15,2.15,0,0,1,5,3.66a3.21,3.21,0,0,1,1.12-.22c.49,0,.65,0,1.9,0s1.41,0,1.9,0A3.1,3.1,0,0,1,11,3.66a2.11,2.11,0,0,1,.82.53,2.28,2.28,0,0,1,.53.81,3.46,3.46,0,0,1,.22,1.12c0,.49,0,.65,0,1.9S12.62,9.43,12.6,9.92Z"/></g></g></svg>