<svg xmlns="http://www.w3.org/2000/svg" width="20.001" height="20.002" data-name="arrow_drop_down-24px (1)"><path d="M0 0h20v20H0z" data-name="Path 29" fill="none"/><path d="M31.8 65.895a2.164 2.164 0 0 0-1.523-1.533A51.143 51.143 0 0 0 23.545 64a51.143 51.143 0 0 0-6.729.362 2.164 2.164 0 0 0-1.523 1.533 24.367 24.367 0 0 0 0 8.345 2.132 2.132 0 0 0 1.523 1.508 51.144 51.144 0 0 0 6.729.362 51.144 51.144 0 0 0 6.729-.362A2.132 2.132 0 0 0 31.8 74.24a24.367 24.367 0 0 0 0-8.345zm-10.017 6.733v-5.122l4.5 2.561-4.5 2.561z" transform="translate(-13.544 -60.528)" fill="#fff"/></svg>