<?xml version="1.0" encoding="utf-8"?>
<!-- Generator: Adobe Illustrator 23.0.0, SVG Export Plug-In . SVG Version: 6.00 Build 0)  -->
<svg version="1.1" id="Layer_1" xmlns="http://www.w3.org/2000/svg" xmlns:xlink="http://www.w3.org/1999/xlink" x="0px" y="0px"
	 viewBox="0 0 24 24" style="enable-background:new 0 0 24 24;" xml:space="preserve">
<style type="text/css">
	.st0{fill:#FFFFFF;}
</style>
<g>
	<path class="st0" d="M7.3,8.1c0,0.4,0,0.9-0.3,1.3c-1.4,1.8-2.8,3.5-4.2,5.3c1.5,0,3,0,4.5,0c0.1,0,0.1,0,0.1,0.1
		c0,0.2,0,0.4,0,0.6c0,0.3-0.2,0.6-0.6,0.6c-1.9,0-3.9,0-5.8,0c-0.1,0-0.1,0-0.1-0.1c0-0.4,0-0.8,0.3-1.1c1.4-1.8,2.8-3.5,4.3-5.3
		c-1.4,0-2.8,0-4.2,0C1,9.4,1,9.4,1,9.3c0-0.4,0-0.8,0-1.3C3.1,8.1,5.2,8.1,7.3,8.1z"/>
	<g>
		<path class="st0" d="M10.4,15.9C5.3,15,8,7.7,12.5,10.4c0-0.1,0-0.2,0-0.3c0-0.1,0-0.1,0.1-0.1c0.4,0,0.7,0,1.1,0
			c0.1,0,0.1,0,0.1,0.1c0,1.9,0,3.8,0,5.7c0,0.1,0,0.1-0.1,0.1c-0.5,0-1.1,0.1-1.2-0.5c-0.5,0.3-1,0.5-1.6,0.6 M8.9,12.9
			c0,2.4,3.6,2.4,3.6,0C12.5,10.5,8.9,10.5,8.9,12.9z"/>
	</g>
	<path class="st0" d="M19.8,15.9c-3.5-0.4-3.7-5.5-0.2-6.2c4.2-0.6,4.9,5.5,0.9,6.1C20.3,15.9,20.1,15.9,19.8,15.9z M22,12.9
		c0-2.4-3.6-2.4-3.6,0C18.4,15.2,21.9,15.2,22,12.9z"/>
	<path class="st0" d="M16.2,8.1c0,2.6,0,5.1,0,7.7c0,0.1,0,0.1-0.1,0.1c-0.3,0-0.5,0-0.8,0s-0.4-0.2-0.5-0.4c0-2.5,0-4.9,0-7.4
		C15.3,8.1,15.7,8.1,16.2,8.1z"/>
</g>
</svg>
